<svg xmlns="http://www.w3.org/2000/svg" viewBox="0 0 1200 420" width="1200" height="420">
  <defs>
    <!-- fire glow filters -->
    <filter id="g1" x="-15%" y="-15%" width="130%" height="130%">
      <feGaussianBlur in="SourceAlpha" stdDeviation="1.5" result="b"/>
      <feFlood flood-color="#ff7744" flood-opacity="1" result="c"/>
      <feComposite in="c" in2="b" operator="in" result="r"/>
      <feMerge><feMergeNode in="r"/><feMergeNode in="SourceGraphic"/></feMerge>
    </filter>
    <filter id="g2" x="-25%" y="-25%" width="150%" height="150%">
      <feGaussianBlur in="SourceAlpha" stdDeviation="4" result="b"/>
      <feFlood flood-color="#ff2200" flood-opacity="0.9" result="c"/>
      <feComposite in="c" in2="b" operator="in" result="r"/>
      <feMerge><feMergeNode in="r"/><feMergeNode in="SourceGraphic"/></feMerge>
    </filter>
    <filter id="g3" x="-45%" y="-45%" width="190%" height="190%">
      <feGaussianBlur in="SourceAlpha" stdDeviation="12" result="b"/>
      <feFlood flood-color="#cc1100" flood-opacity="0.65" result="c"/>
      <feComposite in="c" in2="b" operator="in" result="r"/>
      <feMerge><feMergeNode in="r"/><feMergeNode in="SourceGraphic"/></feMerge>
    </filter>
    <filter id="g4" x="-70%" y="-70%" width="240%" height="240%">
      <feGaussianBlur in="SourceAlpha" stdDeviation="26" result="b"/>
      <feFlood flood-color="#880000" flood-opacity="0.4" result="c"/>
      <feComposite in="c" in2="b" operator="in" result="r"/>
      <feMerge><feMergeNode in="r"/><feMergeNode in="SourceGraphic"/></feMerge>
    </filter>
    <filter id="g5" x="-100%" y="-100%" width="300%" height="300%">
      <feGaussianBlur in="SourceAlpha" stdDeviation="45" result="b"/>
      <feFlood flood-color="#440000" flood-opacity="0.3" result="c"/>
      <feComposite in="c" in2="b" operator="in" result="r"/>
      <feMerge><feMergeNode in="r"/><feMergeNode in="SourceGraphic"/></feMerge>
    </filter>
    <!-- text glow -->
    <filter id="textglow" x="-20%" y="-60%" width="140%" height="220%">
      <feGaussianBlur in="SourceAlpha" stdDeviation="8" result="b"/>
      <feFlood flood-color="#cc2200" flood-opacity="0.7" result="c"/>
      <feComposite in="c" in2="b" operator="in" result="r"/>
      <feMerge><feMergeNode in="r"/><feMergeNode in="SourceGraphic"/></feMerge>
    </filter>
    <filter id="subtextglow" x="-20%" y="-60%" width="140%" height="220%">
      <feGaussianBlur in="SourceAlpha" stdDeviation="4" result="b"/>
      <feFlood flood-color="#880000" flood-opacity="0.6" result="c"/>
      <feComposite in="c" in2="b" operator="in" result="r"/>
      <feMerge><feMergeNode in="r"/><feMergeNode in="SourceGraphic"/></feMerge>
    </filter>
    <!-- fade mask — bat fades bottom into black -->
    <mask id="batmask">
      <linearGradient id="batfade" x1="0" y1="0" x2="0" y2="1">
        <stop offset="0%" stop-color="white" stop-opacity="0.18"/>
        <stop offset="35%" stop-color="white" stop-opacity="0.28"/>
        <stop offset="65%" stop-color="white" stop-opacity="0.22"/>
        <stop offset="100%" stop-color="white" stop-opacity="0"/>
      </linearGradient>
      <rect width="1200" height="420" fill="url(#batfade)"/>
    </mask>
  </defs>

  <!-- BLACK BACKGROUND -->
  <rect width="1200" height="420" fill="#000000"/>

  <!-- subtle top red gradient -->
  <rect width="1200" height="3" y="0" fill="url(#toprule)"/>
  <defs>
    <linearGradient id="toprule" x1="0" y1="0" x2="1" y2="0">
      <stop offset="0%" stop-color="#000"/>
      <stop offset="20%" stop-color="#550000"/>
      <stop offset="50%" stop-color="#8b0000"/>
      <stop offset="80%" stop-color="#550000"/>
      <stop offset="100%" stop-color="#000"/>
    </linearGradient>
    <linearGradient id="botrule" x1="0" y1="0" x2="1" y2="0">
      <stop offset="0%" stop-color="#000"/>
      <stop offset="20%" stop-color="#550000"/>
      <stop offset="50%" stop-color="#8b0000"/>
      <stop offset="80%" stop-color="#550000"/>
      <stop offset="100%" stop-color="#000"/>
    </linearGradient>
  </defs>
  <rect width="1200" height="3" y="417" fill="url(#botrule)"/>

  <!-- BAT LOGO — centered, ghosted behind text -->
  <g mask="url(#batmask)" transform="translate(237, 80) scale(1.006)">
    <path fill="#000" stroke="#330000" stroke-width="20" filter="url(#g5)" d="M483.92 4S481.38 28.71 466 44.11c-11.74 11.74-24.09 12.66-40.26 15.07-9.42 1.41-29.7 3.77-34.81-.79-2.37-2.11-3-21-3.22-27.62-.21-6.92-1.36-16.52-2.82-18-.75 3.06-2.49 11.53-3.09 13.61S378.49 38.3 378 40a85.13 85.13 0 0 0-30.09 0c-.46-1.67-3.17-11.48-3.77-13.56s-2.34-10.55-3.09-13.61c-1.45 1.45-2.61 11.05-2.82 18-.21 6.67-.84 25.51-3.22 27.62-5.11 4.56-25.38 2.2-34.8.79-16.16-2.47-28.51-3.39-40.21-15.13C244.57 28.71 242 4 242 4H0s69.52 22.74 97.52 68.59c16.56 27.11 14.14 58.49 9.92 74.73C170 144 221.46 144 273 162.57c69.23 24.93 83.2 76.19 90 93.6 6.77-17.41 20.75-68.67 90-93.6 51.54-18.56 103-18.59 165.56-15.25-4.21-16.24-6.63-47.62 9.93-74.73C656.43 26.74 726 4 726 4z"/>
    <path fill="#000" stroke="#880000" stroke-width="10" filter="url(#g4)" d="M483.92 4S481.38 28.71 466 44.11c-11.74 11.74-24.09 12.66-40.26 15.07-9.42 1.41-29.7 3.77-34.81-.79-2.37-2.11-3-21-3.22-27.62-.21-6.92-1.36-16.52-2.82-18-.75 3.06-2.49 11.53-3.09 13.61S378.49 38.3 378 40a85.13 85.13 0 0 0-30.09 0c-.46-1.67-3.17-11.48-3.77-13.56s-2.34-10.55-3.09-13.61c-1.45 1.45-2.61 11.05-2.82 18-.21 6.67-.84 25.51-3.22 27.62-5.11 4.56-25.38 2.2-34.8.79-16.16-2.47-28.51-3.39-40.21-15.13C244.57 28.71 242 4 242 4H0s69.52 22.74 97.52 68.59c16.56 27.11 14.14 58.49 9.92 74.73C170 144 221.46 144 273 162.57c69.23 24.93 83.2 76.19 90 93.6 6.77-17.41 20.75-68.67 90-93.6 51.54-18.56 103-18.59 165.56-15.25-4.21-16.24-6.63-47.62 9.93-74.73C656.43 26.74 726 4 726 4z"/>
    <path fill="#000" stroke="#cc1100" stroke-width="5" filter="url(#g3)" d="M483.92 4S481.38 28.71 466 44.11c-11.74 11.74-24.09 12.66-40.26 15.07-9.42 1.41-29.7 3.77-34.81-.79-2.37-2.11-3-21-3.22-27.62-.21-6.92-1.36-16.52-2.82-18-.75 3.06-2.49 11.53-3.09 13.61S378.49 38.3 378 40a85.13 85.13 0 0 0-30.09 0c-.46-1.67-3.17-11.48-3.77-13.56s-2.34-10.55-3.09-13.61c-1.45 1.45-2.61 11.05-2.82 18-.21 6.67-.84 25.51-3.22 27.62-5.11 4.56-25.38 2.2-34.8.79-16.16-2.47-28.51-3.39-40.21-15.13C244.57 28.71 242 4 242 4H0s69.52 22.74 97.52 68.59c16.56 27.11 14.14 58.49 9.92 74.73C170 144 221.46 144 273 162.57c69.23 24.93 83.2 76.19 90 93.6 6.77-17.41 20.75-68.67 90-93.6 51.54-18.56 103-18.59 165.56-15.25-4.21-16.24-6.63-47.62 9.93-74.73C656.43 26.74 726 4 726 4z"/>
    <path fill="#000" stroke="#ff3300" stroke-width="2.5" filter="url(#g2)" d="M483.92 4S481.38 28.71 466 44.11c-11.74 11.74-24.09 12.66-40.26 15.07-9.42 1.41-29.7 3.77-34.81-.79-2.37-2.11-3-21-3.22-27.62-.21-6.92-1.36-16.52-2.82-18-.75 3.06-2.49 11.53-3.09 13.61S378.49 38.3 378 40a85.13 85.13 0 0 0-30.09 0c-.46-1.67-3.17-11.48-3.77-13.56s-2.34-10.55-3.09-13.61c-1.45 1.45-2.61 11.05-2.82 18-.21 6.67-.84 25.51-3.22 27.62-5.11 4.56-25.38 2.2-34.8.79-16.16-2.47-28.51-3.39-40.21-15.13C244.57 28.71 242 4 242 4H0s69.52 22.74 97.52 68.59c16.56 27.11 14.14 58.49 9.92 74.73C170 144 221.46 144 273 162.57c69.23 24.93 83.2 76.19 90 93.6 6.77-17.41 20.75-68.67 90-93.6 51.54-18.56 103-18.59 165.56-15.25-4.21-16.24-6.63-47.62 9.93-74.73C656.43 26.74 726 4 726 4z"/>
    <path fill="#000" stroke="#ff7744" stroke-width="1" filter="url(#g1)" d="M483.92 4S481.38 28.71 466 44.11c-11.74 11.74-24.09 12.66-40.26 15.07-9.42 1.41-29.7 3.77-34.81-.79-2.37-2.11-3-21-3.22-27.62-.21-6.92-1.36-16.52-2.82-18-.75 3.06-2.49 11.53-3.09 13.61S378.49 38.3 378 40a85.13 85.13 0 0 0-30.09 0c-.46-1.67-3.17-11.48-3.77-13.56s-2.34-10.55-3.09-13.61c-1.45 1.45-2.61 11.05-2.82 18-.21 6.67-.84 25.51-3.22 27.62-5.11 4.56-25.38 2.2-34.8.79-16.16-2.47-28.51-3.39-40.21-15.13C244.57 28.71 242 4 242 4H0s69.52 22.74 97.52 68.59c16.56 27.11 14.14 58.49 9.92 74.73C170 144 221.46 144 273 162.57c69.23 24.93 83.2 76.19 90 93.6 6.77-17.41 20.75-68.67 90-93.6 51.54-18.56 103-18.59 165.56-15.25-4.21-16.24-6.63-47.62 9.93-74.73C656.43 26.74 726 4 726 4z"/>
  </g>

  <!-- NAME ON TOP — letter spaced, fire glowing -->
  <text x="600" y="210"
    font-family="Georgia, 'Times New Roman', serif"
    font-size="68"
    font-weight="bold"
    letter-spacing="12"
    text-anchor="middle"
    fill="#cc2200"
    filter="url(#textglow)">PODILAPU MUKESH RAJU</text>

  <!-- thin red rule under name -->
  <line x1="200" y1="232" x2="1000" y2="232" stroke="#550000" stroke-width="0.8" opacity="0.8"/>

  <!-- SUBTITLE -->
  <text x="600" y="268"
    font-family="'Courier New', Courier, monospace"
    font-size="16"
    letter-spacing="5"
    text-anchor="middle"
    fill="#661111"
    filter="url(#subtextglow)">DEVELOPER  ·  AI/ML ENGINEER IN THE MAKING  ·  INTEGRATED M.TECH CSE</text>
</svg>
